HIERARCHY
ROOT Hips
{
	OFFSET 53.967602 -6.952135 91.669800
	CHANNELS 6 Xposition Yposition Zposition Xrotation Yrotation Zrotation
	JOINT spine
	{
		OFFSET 0.000000 -0.393702 6.846367
		CHANNELS 3 Xrotation Yrotation Zrotation
		JOINT spine1
		{
			OFFSET 0.000000 -0.000001 9.496208
			CHANNELS 3 Xrotation Yrotation Zrotation
			JOINT spine2
			{
				OFFSET 0.000000 -0.000001 9.099091
				CHANNELS 3 Xrotation Yrotation Zrotation
				JOINT Neck
				{
					OFFSET 0.000000 -1.113784 23.361206
					CHANNELS 3 Xrotation Yrotation Zrotation
					JOINT Head
					{
						OFFSET 0.000000 -0.000001 7.058014
						CHANNELS 3 Xrotation Yrotation Zrotation
						End Site
						{
							OFFSET 0.000000 5.634187 17.084396
						}
					}
				}
				JOINT RightShoulder
				{
					OFFSET -3.831360 0.533490 9.826309
					CHANNELS 3 Xrotation Yrotation Zrotation
					JOINT RightArm
					{
						OFFSET 0.000000 -0.000002 12.888092
						CHANNELS 3 Xrotation Yrotation Zrotation
						JOINT RightArmRoll
						{
							OFFSET 0.000000 -0.000001 6.506165
							CHANNELS 3 Xrotation Yrotation Zrotation
							JOINT RightForeArm
							{
								OFFSET 0.000000 -0.000003 18.950104
								CHANNELS 3 Xrotation Yrotation Zrotation
								JOINT RightForeArmRoll
								{
									OFFSET 0.000000 -0.000001 7.300919
									CHANNELS 3 Xrotation Yrotation Zrotation
									JOINT RightHand
									{
										OFFSET 0.000000 -0.000002 14.651398
										CHANNELS 3 Xrotation Yrotation Zrotation
										End Site
										{
											OFFSET 0.000000 0.000000 0.100006
										}
									}
								}
							}
						}
					}
				}
				JOINT LeftShoulder
				{
					OFFSET 3.831360 0.533490 9.826309
					CHANNELS 3 Xrotation Yrotation Zrotation
					JOINT LeftArm
					{
						OFFSET 0.000000 -0.000002 12.888092
						CHANNELS 3 Xrotation Yrotation Zrotation
						JOINT LeftArmRoll
						{
							OFFSET 0.000000 -0.000001 6.506165
							CHANNELS 3 Xrotation Yrotation Zrotation
							JOINT LeftForeArm
							{
								OFFSET 0.000000 -0.000003 18.950104
								CHANNELS 3 Xrotation Yrotation Zrotation
								JOINT LeftForeArmRoll
								{
									OFFSET 0.000000 -0.000001 7.300919
									CHANNELS 3 Xrotation Yrotation Zrotation
									JOINT LeftHand
									{
										OFFSET 0.000000 -0.000002 14.651398
										CHANNELS 3 Xrotation Yrotation Zrotation
										End Site
										{
											OFFSET 0.000000 0.000000 0.100006
										}
									}
								}
							}
						}
					}
				}
			}
		}
	}
	JOINT RightUpLeg
	{
		OFFSET -6.068371 0.933477 -1.112778
		CHANNELS 3 Xrotation Yrotation Zrotation
		JOINT RightUpLegRoll
		{
			OFFSET 0.000000 -0.000003 17.179596
			CHANNELS 3 Xrotation Yrotation Zrotation
			JOINT RightLeg
			{
				OFFSET 0.000000 0.000003 -21.274300
				CHANNELS 3 Xrotation Yrotation Zrotation
				JOINT RightLegRoll
				{
					OFFSET 0.000000 -0.000003 21.343903
					CHANNELS 3 Xrotation Yrotation Zrotation
					JOINT RightFoot
					{
						OFFSET 0.000000 -0.000003 17.765198
						CHANNELS 3 Xrotation Yrotation Zrotation
						JOINT RightToeBase
						{
							OFFSET 0.000000 -0.000002 14.850792
							CHANNELS 3 Xrotation Yrotation Zrotation
							End Site
							{
								OFFSET 0.006294 0.829004 7.192139
							}
						}
					}
				}
			}
		}
	}
	JOINT LeftUpLeg
	{
		OFFSET 6.068371 0.933477 -1.112778
		CHANNELS 3 Xrotation Yrotation Zrotation
		JOINT LeftUpLegRoll
		{
			OFFSET 0.000000 -0.000003 17.179703
			CHANNELS 3 Xrotation Yrotation Zrotation
			JOINT LeftLeg
			{
				OFFSET 0.000000 -0.000003 21.274200
				CHANNELS 3 Xrotation Yrotation Zrotation
				JOINT LeftLegRoll
				{
					OFFSET 0.000000 -0.000003 21.541199
					CHANNELS 3 Xrotation Yrotation Zrotation
					JOINT LeftFoot
					{
						OFFSET 0.000000 -0.000003 17.567902
						CHANNELS 3 Xrotation Yrotation Zrotation
						JOINT LeftToeBase
						{
							OFFSET 0.000000 -0.000003 14.850800
							CHANNELS 3 Xrotation Yrotation Zrotation
							End Site
							{
								OFFSET -0.028210 0.829004 7.192123
							}
						}
					}
				}
			}
		}
	}
}
MOTION
Frames: 4
Frame Time: 0.041667
54.398003 -6.465977 91.622398 -4.929900 -0.816067 -0.249428 -1.385335 -0.141015 -0.148389 1.216365 -0.278310 -0.296050 2.861433 -0.281843 -0.292576 32.812331 5.783221 -0.349239 -10.401167 -3.720049 0.194969 26.689138 -70.383638 27.813367 -21.639824 -101.287143 -6.848483 0.000001 0.000001 -0.000001 10.744743 -10.698799 0.014739 -0.000002 0.000003 -3.000001 -5.000210 -7.998743 0.000151 9.338309 70.711617 -8.905879 -35.542119 107.551034 11.242710 0.000000 0.000008 0.000003 2.629988 10.351822 0.089160 -0.000006 -0.000014 3.001090 -5.000231 7.998774 -0.000143 1.969898 -174.097451 2.447836 179.999991 -0.000005 -1.167001 174.987479 -2.174665 -0.219687 -0.000001 -0.000003 0.053399 69.105682 6.914785 2.051681 25.456856 -7.355622 -0.000002 5.562888 176.337275 0.028098 -0.000005 0.000011 -1.208200 -4.141945 1.496982 0.157032 -0.000007 -0.000000 -0.036733 69.045481 -6.918102 -2.056859 25.456851 7.355618 0.000013 
54.392902 -6.467243 91.616997 -4.932892 -0.816829 -0.248765 -1.385435 -0.140949 -0.148432 1.218244 -0.276877 -0.295682 2.863325 -0.280415 -0.292217 32.806331 5.774686 -0.345327 -10.401945 -3.710449 0.197646 26.711485 -70.390919 27.835579 -21.644410 -101.271440 -6.867356 0.000001 0.000000 -0.000002 10.761470 -10.710907 0.017830 -0.000000 0.000004 -3.000001 -5.000212 -7.998744 0.000150 9.309676 70.703987 -8.875745 -35.525617 107.554777 11.233829 -0.000001 0.000008 0.000002 2.635273 10.357674 0.088408 -0.000006 -0.000014 3.001090 -5.000233 7.998774 -0.000143 1.974629 -174.095484 2.450280 179.999991 -0.000004 -1.167001 174.987097 -2.176650 -0.219876 -0.000001 -0.000002 0.053400 69.105259 6.914762 2.051704 25.456854 -7.355619 -0.000003 5.567379 176.338313 0.029041 -0.000005 0.000011 -1.208200 -4.140272 1.495947 0.157026 -0.000007 -0.000000 -0.036733 69.046116 -6.918101 -2.056919 25.456854 7.355619 0.000012 
54.394604 -6.475716 91.618385 -4.935900 -0.817945 -0.248032 -1.385615 -0.140850 -0.148496 1.220104 -0.275289 -0.295320 2.865174 -0.278834 -0.291866 32.801140 5.766126 -0.341514 -10.403537 -3.700839 0.200240 26.734532 -70.398288 27.858576 -21.648433 -101.255690 -6.885283 0.000001 0.000001 -0.000002 10.777883 -10.722732 0.020856 -0.000000 0.000003 -3.000000 -5.000211 -7.998744 0.000151 9.280028 70.695907 -8.844561 -35.508381 107.559579 11.223165 0.000001 0.000007 0.000000 2.639593 10.362434 0.087697 -0.000004 -0.000014 3.001088 -5.000233 7.998774 -0.000145 1.979281 -174.093503 2.453117 179.999991 -0.000004 -1.167001 174.986441 -2.177641 -0.219988 -0.000001 -0.000003 0.053400 69.104944 6.914780 2.051626 25.456854 -7.355619 -0.000002 5.571947 176.340321 0.030426 -0.000005 0.000011 -1.208200 -4.138460 1.494793 0.157016 -0.000007 -0.000000 -0.036733 69.046744 -6.918099 -2.056880 25.456853 7.355619 0.000012 
54.392902 -6.474798 91.617798 -4.938925 -0.819309 -0.247248 -1.385845 -0.140728 -0.148574 1.221934 -0.273595 -0.294962 2.867013 -0.277147 -0.291519 32.796557 5.757542 -0.337764 -10.405630 -3.691223 0.202781 26.757947 -70.405624 27.881944 -21.653921 -101.238990 -6.904222 0.000001 0.000001 -0.000002 10.793988 -10.734365 0.023824 -0.000000 0.000004 -3.000001 -5.000212 -7.998744 0.000151 9.249759 70.687547 -8.812734 -35.489591 107.565255 11.210350 0.000001 0.000008 0.000001 2.643236 10.366499 0.087010 -0.000005 -0.000014 3.001090 -5.000232 7.998775 -0.000143 1.983892 -174.091523 2.456251 179.999991 -0.000004 -1.167001 174.985622 -2.179640 -0.220195 -0.000001 -0.000003 0.053401 69.104726 6.914771 2.051640 25.456854 -7.355620 -0.000002 5.576563 176.342329 0.032053 -0.000005 0.000011 -1.208200 -4.136557 1.493550 0.157006 -0.000007 -0.000000 -0.036733 69.047496 -6.918102 -2.056834 25.456856 7.355619 0.000012 
